<?xml version="1.0" standalone="no"?>
<!DOCTYPE svg PUBLIC "-//W3C//DTD SVG 20010904//EN"
 "http://www.w3.org/TR/2001/REC-SVG-20010904/DTD/svg10.dtd">
<svg version="1.0" xmlns="http://www.w3.org/2000/svg"
 width="512.000000pt" height="512.000000pt" viewBox="0 0 512.000000 512.000000"
 preserveAspectRatio="xMidYMid meet">

<g transform="translate(0.000000,512.000000) scale(0.100000,-0.100000)"
fill="#20489e" stroke="none">
<path d="M2145 4924 c-413 -41 -708 -132 -1013 -313 -937 -554 -1354 -1666
-1012 -2695 242 -726 840 -1288 1580 -1485 414 -110 887 -97 1295 35 179 59
404 169 565 277 84 57 220 165 220 175 0 8 -336 295 -351 300 -5 2 -35 -16
-66 -40 -85 -65 -196 -131 -303 -182 -694 -326 -1513 -183 -2055 359 -278 278
-444 605 -516 1015 -18 100 -18 430 0 540 107 679 574 1234 1221 1453 564 192
1206 85 1683 -280 155 -118 335 -319 444 -493 267 -428 338 -983 191 -1475
-26 -88 -100 -264 -135 -324 -17 -29 -23 -49 -17 -57 5 -7 86 -78 181 -158
l172 -146 45 83 c205 375 296 723 296 1125 0 262 -34 480 -110 712 -270 825
-989 1429 -1851 1554 -104 16 -388 28 -464 20z"/>
<path d="M2121 4060 c-722 -91 -1261 -698 -1261 -1420 0 -660 458 -1238 1100
-1389 318 -75 650 -38 945 104 88 42 221 123 214 129 -2 2 -86 74 -187 160
l-183 156 -57 -29 c-171 -85 -392 -112 -592 -71 -356 73 -628 322 -737 677
-25 81 -27 101 -27 263 0 162 2 182 27 263 168 546 729 829 1261 636 159 -57
322 -179 428 -318 68 -89 143 -247 170 -356 39 -159 27 -400 -27 -536 -4 -12
41 -56 175 -170 99 -85 184 -155 188 -156 4 -2 22 32 40 75 117 277 147 566
87 857 -114 556 -582 1012 -1140 1110 -112 20 -325 27 -424 15z"/>
<path d="M2130 3107 c-88 -30 -145 -65 -208 -128 -253 -253 -180 -676 144
-831 87 -42 173 -57 274 -48 l55 5 -160 136 c-253 215 -279 252 -280 399 0 73
4 93 28 142 36 74 119 150 189 174 79 28 179 24 249 -8 53 -24 78 -44 288
-222 l94 -81 -7 45 c-25 164 -130 311 -271 383 -124 62 -275 75 -395 34z"/>
<path d="M2226 2826 c-70 -26 -122 -91 -127 -157 -5 -62 1 -86 29 -126 15 -23
444 -395 1007 -873 539 -458 983 -835 987 -839 3 -3 0 -44 -8 -90 -8 -46 -11
-87 -7 -91 82 -76 516 -450 519 -447 2 2 -7 108 -21 236 l-25 232 22 32 c13
18 23 33 24 35 1 2 302 -14 418 -23 61 -5 67 -4 56 10 -17 20 -548 479 -560
483 -4 2 -47 -13 -93 -34 -75 -32 -87 -35 -104 -23 -11 8 -450 381 -976 829
-527 448 -973 823 -992 833 -47 25 -102 30 -149 13z"/>
</g>
</svg>
