<?xml version="1.0" standalone="no"?>
<!DOCTYPE svg PUBLIC "-//W3C//DTD SVG 20010904//EN"
 "http://www.w3.org/TR/2001/REC-SVG-20010904/DTD/svg10.dtd">
<svg version="1.0" xmlns="http://www.w3.org/2000/svg"
 width="512.000000pt" height="512.000000pt" viewBox="0 0 512.000000 512.000000"
 preserveAspectRatio="xMidYMid meet">

<g transform="translate(0.000000,512.000000) scale(0.100000,-0.100000)"
fill="#20489e" stroke="none">
<path d="M190 5111 c-69 -21 -130 -73 -166 -141 -18 -34 -19 -100 -22 -1794
-1 -1192 1 -1770 8 -1797 16 -57 69 -120 130 -154 l55 -30 790 -3 c559 -2 801
0 828 8 79 23 86 125 11 156 -27 12 -174 14 -818 14 -757 0 -785 1 -807 19
l-24 19 -3 1431 -2 1431 2132 -2 2133 -3 5 -533 5 -534 24 -19 c26 -21 78 -25
102 -6 39 30 39 31 39 885 0 924 2 897 -67 973 -20 22 -55 50 -77 62 l-41 22
-2105 2 c-1158 1 -2116 -2 -2130 -6z m4217 -185 l28 -24 3 -231 3 -231 -2135
0 -2136 0 0 226 0 226 29 29 29 29 2076 0 2075 0 28 -24z"/>
<path d="M369 4751 c-31 -31 -36 -59 -17 -94 41 -78 159 -52 158 35 -1 37 -14
59 -47 76 -35 19 -63 14 -94 -17z"/>
<path d="M716 4758 c-40 -35 -43 -78 -11 -116 65 -77 175 -3 139 93 -8 19 -55
45 -83 45 -11 0 -31 -10 -45 -22z"/>
<path d="M1072 4770 c-31 -13 -55 -71 -43 -104 33 -85 161 -67 161 24 0 21 -8
47 -17 59 -21 25 -68 35 -101 21z"/>
<path d="M1996 4758 c-40 -35 -43 -78 -11 -116 l27 -32 334 0 335 0 24 25 c35
34 33 78 -4 116 l-29 29 -326 0 c-323 0 -325 0 -350 -22z"/>
<path d="M369 3981 c-38 -38 -38 -74 1 -113 l30 -30 121 4 c113 3 122 5 140
27 27 33 25 86 -6 116 -23 24 -30 25 -140 25 -115 0 -117 0 -146 -29z"/>
<path d="M884 3986 c-21 -18 -28 -32 -28 -61 0 -29 7 -43 28 -61 l27 -24 405
0 c426 0 451 2 468 45 13 35 6 76 -19 100 l-24 25 -415 0 -415 0 -27 -24z"/>
<path d="M1994 3986 c-21 -18 -28 -32 -28 -61 0 -29 7 -43 28 -61 l27 -24 369
0 369 0 26 23 c39 33 39 91 1 123 l-27 24 -369 0 -369 0 -27 -24z"/>
<path d="M3128 3750 c-498 -46 -922 -375 -1092 -848 -94 -263 -94 -591 0 -854
30 -82 83 -192 121 -249 24 -36 25 -43 18 -121 -34 -390 -275 -735 -667 -954
-132 -74 -138 -79 -138 -124 0 -21 8 -47 18 -59 19 -23 130 -62 244 -85 83
-17 270 -21 330 -7 37 9 38 9 44 -28 24 -146 85 -279 168 -367 41 -43 58 -54
83 -54 49 0 79 34 97 110 21 85 84 210 142 283 25 32 103 102 173 156 249 193
381 373 442 602 l12 45 118 0 118 0 26 -80 c28 -87 90 -216 137 -284 48 -69
174 -191 284 -274 177 -134 278 -270 319 -428 23 -87 33 -106 62 -119 46 -21
66 -13 125 49 86 90 168 273 168 373 0 24 3 28 18 22 39 -17 258 -18 342 -1
201 41 280 81 280 143 0 43 -17 59 -127 119 -369 202 -601 495 -667 844 -24
123 -21 202 8 248 77 123 145 308 172 467 21 132 14 364 -15 481 -64 259 -166
441 -350 625 -112 112 -215 186 -346 249 -201 96 -445 140 -667 120z m312
-184 c458 -82 815 -446 896 -910 23 -132 14 -328 -20 -461 -109 -413 -450
-730 -869 -810 -112 -21 -310 -19 -422 4 -436 90 -768 418 -867 855 -28 121
-29 326 -4 446 94 447 437 786 882 874 90 18 309 19 404 2z m-910 -2151 c109
-73 211 -122 335 -161 47 -14 85 -32 85 -39 0 -25 -40 -127 -79 -203 -52 -100
-146 -202 -279 -305 -58 -45 -131 -105 -162 -134 -63 -58 -150 -177 -182 -250
l-21 -47 -13 26 c-33 62 -45 141 -39 239 7 96 7 96 -20 118 -32 24 -76 27
-108 7 -54 -35 -151 -58 -244 -58 -137 0 -139 6 -31 82 113 80 245 208 325
316 105 143 196 343 226 501 l11 62 51 -45 c27 -24 93 -73 145 -109z m1656 0
c33 -120 128 -310 208 -416 81 -106 229 -248 337 -322 l80 -55 -33 -8 c-92
-20 -239 1 -330 47 -48 25 -93 24 -118 -1 -23 -23 -22 -12 -24 -165 -1 -101
-4 -128 -23 -169 l-23 -48 -36 70 c-52 101 -149 217 -240 287 -225 173 -308
259 -373 384 -36 70 -86 200 -79 206 2 1 41 14 88 28 162 49 351 157 475 270
l50 45 8 -31 c5 -18 20 -72 33 -122z"/>
<path d="M3167 3391 c-39 -25 -42 -31 -142 -246 -48 -104 -93 -195 -99 -201
-6 -6 -108 -26 -226 -43 -229 -34 -246 -40 -287 -101 -25 -35 -29 -82 -13
-126 6 -15 82 -101 170 -191 88 -90 160 -171 160 -178 0 -8 -16 -112 -36 -231
-21 -129 -33 -231 -29 -250 7 -42 45 -87 85 -104 58 -24 105 -8 300 100 102
57 190 103 195 103 6 0 96 -48 201 -107 212 -117 244 -126 311 -85 74 46 77
89 28 379 l-34 204 164 166 c130 133 166 175 174 206 18 66 -13 140 -69 169
-17 9 -127 30 -245 49 -118 18 -216 34 -218 37 -2 2 -43 90 -92 194 -101 215
-115 239 -155 260 -40 21 -109 19 -143 -4z m240 -530 c20 -37 40 -60 63 -72
20 -10 113 -29 220 -45 102 -15 189 -31 194 -35 5 -4 -59 -77 -142 -161 -125
-128 -152 -160 -157 -192 -5 -26 3 -102 25 -237 18 -110 30 -202 27 -205 -3
-3 -84 37 -179 90 -138 76 -182 96 -214 96 -31 0 -77 -21 -219 -99 -99 -54
-181 -97 -183 -96 -1 1 13 97 32 212 29 172 33 218 25 248 -8 29 -47 75 -161
191 -135 138 -148 154 -127 158 13 3 103 17 199 32 176 26 211 37 242 70 9 11
51 93 93 184 43 91 82 174 88 185 9 17 20 0 78 -125 37 -80 81 -169 96 -199z"/>
<path d="M370 3641 c-39 -38 -39 -74 -1 -112 l29 -29 372 0 371 0 24 25 c31
30 33 83 6 116 l-19 24 -377 3 -376 3 -29 -30z"/>
<path d="M1395 3645 c-17 -16 -25 -35 -25 -60 0 -25 8 -44 25 -60 23 -24 30
-25 139 -25 106 0 117 2 142 24 21 18 28 32 28 61 0 29 -7 43 -28 61 -25 22
-36 24 -142 24 -109 0 -116 -1 -139 -25z"/>
<path d="M1925 3658 c-52 -28 -62 -92 -20 -133 23 -24 30 -25 140 -25 115 0
117 0 146 29 17 18 29 40 29 56 0 16 -12 38 -29 56 -29 29 -31 29 -138 29 -59
0 -117 -6 -128 -12z"/>
<path d="M423 3045 c-71 -43 -83 -82 -83 -271 0 -188 11 -225 81 -271 l43 -28
555 -3 c306 -2 579 0 608 3 57 7 104 34 137 78 20 27 21 41 21 221 l0 193 -27
35 c-54 71 -28 68 -695 68 l-598 0 -42 -25z m1197 -270 l0 -125 -555 0 -555 0
0 125 0 125 555 0 555 0 0 -125z"/>
</g>
</svg>
