<?xml version="1.0" standalone="no"?>
<!DOCTYPE svg PUBLIC "-//W3C//DTD SVG 20010904//EN"
 "http://www.w3.org/TR/2001/REC-SVG-20010904/DTD/svg10.dtd">
<svg version="1.0" xmlns="http://www.w3.org/2000/svg"
 width="512.000000pt" height="512.000000pt" viewBox="0 0 512.000000 512.000000"
 preserveAspectRatio="xMidYMid meet">

<g transform="translate(0.000000,512.000000) scale(0.100000,-0.100000)"
fill="#20489e" stroke="none">
<path d="M1967 5100 c-317 -54 -576 -274 -677 -577 -42 -127 -53 -256 -48
-563 4 -242 6 -259 30 -327 14 -40 49 -107 78 -149 78 -114 89 -154 100 -367
10 -188 24 -275 67 -412 57 -182 138 -318 263 -439 l81 -79 -3 -91 -3 -91
-145 -52 c-617 -220 -1261 -457 -1303 -480 -112 -60 -228 -205 -271 -338 -28
-89 -138 -784 -133 -842 11 -106 85 -210 185 -256 l47 -22 2325 0 2325 0 47
22 c98 46 175 152 184 255 6 58 -103 752 -132 843 -44 136 -161 280 -279 341
-57 30 -196 81 -1050 388 -192 70 -360 131 -372 136 -22 9 -23 16 -23 104 l0
95 83 83 c176 177 266 383 322 738 30 197 60 291 143 459 l67 135 3 363 c4
407 2 417 -66 547 -44 84 -118 162 -193 205 l-56 31 -1 59 c-2 133 -80 227
-225 273 -54 17 -105 18 -690 17 -348 -1 -654 -5 -680 -9z m1326 -176 c54 -18
97 -64 97 -102 0 -14 -5 -51 -12 -83 -15 -75 -1 -98 81 -128 113 -41 192 -121
230 -232 20 -59 21 -84 21 -365 0 -207 -4 -320 -12 -356 -13 -53 -13 -53 -19
82 -4 103 -10 149 -27 195 -42 115 -129 220 -233 282 -30 18 -165 72 -299 120
l-245 87 -100 0 c-98 0 -103 -1 -255 -59 l-155 -59 -255 -6 c-233 -5 -260 -8
-312 -29 -217 -85 -356 -285 -359 -516 -1 -50 -3 -63 -9 -45 -4 14 -8 162 -9
330 -1 347 4 381 70 519 33 67 58 102 128 171 73 75 100 94 181 133 83 40 132
54 240 71 14 2 291 4 616 5 516 1 596 -1 637 -15z m-246 -750 c120 -42 240
-87 266 -101 59 -30 121 -92 155 -158 l27 -50 3 -385 c3 -418 -3 -501 -54
-674 -62 -216 -177 -388 -324 -485 -25 -17 -83 -62 -130 -101 -136 -113 -235
-163 -364 -180 -108 -16 -192 0 -302 54 -109 54 -406 268 -465 334 -90 103
-167 267 -212 457 -20 85 -22 115 -22 530 l0 440 27 57 c33 70 106 145 173
178 48 24 61 25 300 31 273 6 256 3 470 83 172 65 183 64 452 -30z m43 -2142
l0 -38 -265 -177 -264 -177 -266 176 c-258 173 -265 178 -265 211 0 18 2 33 5
33 2 0 39 -23 82 -51 96 -62 205 -115 280 -134 75 -20 225 -19 316 1 87 19
253 98 322 153 28 22 51 40 53 40 1 1 2 -16 2 -37z m-905 -355 c132 -88 242
-161 244 -163 4 -4 -301 -424 -309 -424 -7 0 -375 669 -375 682 0 13 176 77
190 70 6 -3 118 -77 250 -165z m1190 95 c0 -17 -369 -682 -377 -680 -8 3 -298
396 -304 412 -2 6 109 86 247 177 l251 167 91 -33 c51 -18 92 -37 92 -43z
m-2040 -302 c-53 -107 -95 -204 -95 -220 0 -16 11 -41 24 -57 24 -28 26 -28
150 -31 l125 -4 -29 -59 c-58 -114 -87 -77 393 -516 232 -212 424 -390 425
-395 5 -12 -2005 -10 -2047 2 -44 12 -87 54 -101 95 -17 50 108 781 145 855
33 65 105 143 164 178 38 22 931 352 939 346 2 -1 -40 -88 -93 -194z m2825 28
c228 -82 436 -161 463 -176 26 -14 70 -49 98 -79 85 -90 95 -123 166 -543 36
-214 60 -387 57 -403 -9 -41 -60 -95 -102 -107 -45 -12 -2055 -14 -2050 -2 2
5 165 156 363 337 485 442 485 442 485 482 0 19 -13 60 -30 92 l-29 59 125 4
c124 3 126 3 150 31 13 16 24 41 24 57 0 16 -42 112 -95 219 -52 106 -95 194
-95 196 0 3 12 0 28 -6 15 -6 214 -78 442 -161z m-2265 -368 c152 -278 291
-530 307 -560 l31 -55 -49 46 c-27 25 -154 141 -281 258 l-233 212 50 99 c28
55 50 109 50 121 0 11 -13 34 -29 50 -29 29 -30 29 -150 29 -73 0 -121 4 -121
10 0 10 143 301 146 297 1 -1 126 -229 279 -507z m1754 213 c1 -10 -30 -13
-120 -13 -120 0 -121 0 -150 -29 -16 -16 -29 -39 -29 -50 0 -12 22 -66 50
-121 l50 -99 -238 -217 c-130 -120 -257 -236 -281 -258 l-43 -41 43 80 c24 45
163 298 309 563 l265 482 72 -143 c40 -78 72 -148 72 -154z m-995 -90 c4 -8
-10 -37 -34 -72 -23 -35 -40 -72 -40 -88 0 -15 21 -159 46 -319 l47 -291 -54
-97 c-30 -53 -56 -96 -59 -96 -3 0 -29 43 -58 95 l-53 95 45 286 c25 158 46
303 46 323 0 28 -11 52 -41 94 l-40 57 22 33 c13 17 36 49 52 70 l29 38 42
-58 c23 -32 45 -64 50 -70z m-292 -175 c5 -16 -44 -338 -51 -338 -8 0 -91 155
-91 169 0 13 122 181 131 181 4 0 9 -6 11 -12z m476 -73 c34 -46 62 -90 62
-97 -1 -24 -89 -173 -94 -158 -7 25 -46 285 -46 314 0 14 4 26 8 26 5 0 36
-38 70 -85z"/>
</g>
</svg>
